<?xml version="1.0" standalone="no"?>
<!DOCTYPE svg PUBLIC "-//W3C//DTD SVG 20010904//EN"
 "http://www.w3.org/TR/2001/REC-SVG-20010904/DTD/svg10.dtd">
<svg version="1.0" xmlns="http://www.w3.org/2000/svg"
 width="512.000000pt" height="512.000000pt" viewBox="0 0 512.000000 512.000000"
 preserveAspectRatio="xMidYMid meet">
<metadata>
Created by potrace 1.14, written by Peter Selinger 2001-2017
</metadata>
<g transform="translate(0.000000,512.000000) scale(0.100000,-0.100000)"
fill="#000000" stroke="none">
<path d="M2315 5040 c-27 -4 -72 -10 -100 -14 -325 -44 -720 -191 -980 -364
-42 -29 -79 -52 -81 -52 -2 0 -53 -38 -114 -85 -101 -79 -276 -244 -360 -340
-52 -59 -169 -219 -224 -305 -49 -77 -186 -345 -200 -390 -5 -14 -10 -29 -12
-35 -54 -134 -126 -405 -139 -520 -3 -27 -8 -61 -10 -75 -22 -124 -22 -480 0
-610 2 -14 7 -47 10 -75 3 -27 8 -57 10 -65 2 -8 6 -26 9 -40 34 -194 120
-438 227 -648 95 -186 182 -316 344 -511 48 -58 227 -229 310 -296 174 -140
415 -283 620 -368 152 -63 416 -137 540 -152 32 -3 62 -8 66 -11 15 -9 193
-19 344 -19 143 0 264 7 335 19 14 2 48 8 75 12 28 4 55 8 60 10 6 1 21 4 35
7 266 53 598 188 825 335 437 282 757 660 967 1140 11 26 24 58 28 72 5 14 22
63 39 110 18 47 31 85 30 85 0 0 4 18 10 40 57 214 85 430 85 660 0 120 -12
323 -19 335 -1 3 -6 28 -9 55 -15 113 -86 388 -123 475 -3 8 -7 17 -8 20 -63
185 -233 483 -386 676 -93 117 -315 337 -403 399 -15 11 -33 25 -40 31 -18 17
-197 138 -247 166 -91 53 -272 140 -352 169 -45 16 -91 33 -102 38 -78 32
-281 82 -410 101 -44 6 -91 14 -105 17 -38 8 -489 11 -545 3z"/>
</g>
</svg>
